<?xml version="1.0" encoding="utf-8"?>
<!-- Generator: Adobe Illustrator 19.2.1, SVG Export Plug-In . SVG Version: 6.00 Build 0)  -->
<svg version="1.1"
	 id="svg3336" inkscape:version="0.91 r13725" sodipodi:docname="logo.svg" xmlns:cc="http://creativecommons.org/ns#" xmlns:dc="http://purl.org/dc/elements/1.1/" xmlns:inkscape="http://www.inkscape.org/namespaces/inkscape" xmlns:rdf="http://www.w3.org/1999/02/22-rdf-syntax-ns#" xmlns:sodipodi="http://sodipodi.sourceforge.net/DTD/sodipodi-0.dtd" xmlns:svg="http://www.w3.org/2000/svg"
	 xmlns="http://www.w3.org/2000/svg" xmlns:xlink="http://www.w3.org/1999/xlink" x="0px" y="0px" viewBox="0 0 800 275"
	 style="enable-background:new 0 0 800 275;" xml:space="preserve">
<sodipodi:namedview  bordercolor="#666666" borderopacity="1" gridtolerance="10" guidetolerance="10" id="namedview3338" inkscape:current-layer="svg3336" inkscape:cx="400" inkscape:cy="137.5" inkscape:pageopacity="0" inkscape:pageshadow="2" inkscape:window-height="966" inkscape:window-maximized="1" inkscape:window-width="1829" inkscape:window-x="-8" inkscape:window-y="-8" inkscape:zoom="2.0925" objecttolerance="10" pagecolor="#ffffff" showgrid="false">
	</sodipodi:namedview>
<image style="overflow:visible;enable-background:new    ;" width="800" height="275" id="image3344" xlink:href="F26E8B98.png" >
</image>
<path id="path3346" inkscape:connector-curvature="0" d="M433.1,261.4c-15.7-4.2-26.2-15.4-31.7-33.9c-1.7-5.6-1.8-13.4-2.1-110.3
	L398.9,13h8h8l0,100.3c0,108.8,0,108.1,5.5,119.5c3.1,6.3,9,11.6,15.2,13.7c6,2,16.6,2,22.8-0.1c6.8-2.3,14.4-10.1,17.5-17.9l2.4-6
	l0.3-104.8L479,13h8h8l0,102.3c0,112.5,0.1,110-6.2,122.8c-5.8,11.8-17.8,21.1-30.6,23.9C451.1,263.4,439.7,263.2,433.1,261.4
	L433.1,261.4z M24,136.5V13h10h10v116v116h3.5H51V129V13h8h8v116v116h30h30v7.5v7.5H75.5H24V136.5z M134.4,258.3
	c0.3-1,10.5-55.8,22.6-121.8s22.3-121.2,22.6-122.8c0.6-2.7,0.6-2.8,9-2.8c7.9,0,8.4,0.1,8.9,2.3c0.3,1.2,10.4,56,22.5,121.8
	s22.2,120.8,22.6,122.3l0.6,2.8l-8.3-0.3l-8.3-0.3l-5.3-30c-2.9-16.5-5.3-30.1-5.3-30.3c0-0.1-12.3-0.3-27.4-0.3h-27.3l-4.3,24.3
	c-2.4,13.3-4.8,26.9-5.5,30.3l-1.2,6l-8.3,0.3C134.6,260.1,133.9,259.9,134.4,258.3L134.4,258.3z M213,183.1
	c0-2.7-23.8-138.3-24.4-138.8c-0.3-0.3-0.7,0.6-1,1.9c-1.3,5.7-23.6,135.2-23.6,136.9c0,1.9,0.9,1.9,24.5,1.9
	C212,185,213,184.9,213,183.1z M265,136.5V13l20.8,0c23.2,0,29.4,1,40.2,6.2c4.5,2.2,9.1,5.7,14.7,11.2c6.9,6.8,8.9,9.7,13.2,18.5
	c11.4,23.3,15.8,51.4,14.9,95c-0.5,24.9-2.2,39.7-6.2,55.4c-8.5,33.5-26.1,53.9-51.1,59.1c-4.8,1-13.3,1.5-26.8,1.5l-19.8,0V136.5z
	 M307.1,244c20.3-3.8,34.3-21.2,40.4-50.3c4-19.1,5.6-46.6,4.3-75.5c-1.9-44.2-10.4-69.2-27.8-82.2c-7.8-5.8-16.6-8.2-31-8.4
	l-11.7-0.1l-0.3,108.8L281,245h10.4C297.1,245,304.2,244.5,307.1,244z M533.8,136.5L533.5,13l6.6,0l6.6,0l20.9,58.4
	c11.5,32.1,21.2,58.2,21.4,57.9s9.8-26.4,21.1-58.2l20.6-57.7l6.6-0.3l6.6-0.3v123.5V260h-7.5H629v-99.9c0-55-0.4-100.2-0.8-100.5
	s-8.9,22.5-18.8,50.7c-16.8,47.9-18.2,51.2-20.3,51.2c-2.6,0-0.3,6.1-24.9-63.8C556.7,77,550.3,60,549.9,60c-0.5,0-0.9,44.9-0.9,100
	v100h-7.5H534L533.8,136.5L533.8,136.5z M667,259.3c0-0.4,10.3-56.3,22.8-124.3l22.8-123.5l8.7-0.3c4.8-0.2,8.7,0,8.7,0.4
	c0,0.4,10.1,55.5,22.5,122.6S775,257,775,258.1c0,1.7-0.8,1.9-7.8,1.9h-7.8l-4.3-24.8c-2.4-13.6-4.8-27.3-5.3-30.5l-1-5.8h-27.3
	h-27.3l-1,5.3c-0.6,2.9-2.9,15.6-5.1,28.3s-4.3,24-4.6,25.3c-0.5,2.1-1,2.3-8.5,2.3C670.6,260,667,259.7,667,259.3L667,259.3z
	 M745.4,184.1c0.8-1.3-23.7-140.3-24.5-139.3c-0.9,1-24.8,138.5-24.2,139.5C697.3,185.3,744.8,185.2,745.4,184.1z"/>
</svg>
